<svg xmlns="http://www.w3.org/2000/svg" width="1024" height="1024">
<path d="M 647.76 530.16 L 647.50 572.50 L 631.94 572.77 C623.38,572.93 616.07,572.74 615.69,572.36 C615.31,571.98 615.00,530.34 615.00,479.83 L 615.00 388.00 L 673.86 388.00 C709.72,388.00 734.83,388.40 738.11,389.02 C764.63,394.05 781.97,422.31 775.46,449.91 C771.40,467.14 756.83,482.54 741.16,486.15 C738.32,486.81 736.00,487.66 736.00,488.05 C736.00,489.25 744.12,506.22 760.74,539.72 C769.53,557.45 776.48,572.18 776.19,572.47 C775.90,572.76 767.84,573.00 758.27,573.00 L 740.88 573.00 L 723.05 536.72 C704.00,497.93 702.80,496.12 692.80,490.81 C688.81,488.70 687.03,488.50 668.26,488.18 L 648.02 487.82 ZM 228.00 540.00 L 228.00 573.00 L 160.25 572.92 C105.00,572.85 91.40,572.57 86.56,571.40 C69.90,567.37 55.78,553.49 50.61,536.07 C48.21,527.97 48.20,432.10 50.60,423.93 C55.72,406.47 70.07,392.68 86.80,389.13 C90.43,388.35 113.51,388.00 160.05,388.00 L 228.00 388.00 L 228.00 420.96 L 159.57 421.23 C91.92,421.50 91.11,421.52 88.32,423.59 C82.09,428.21 81.00,431.21 81.00,443.65 L 81.00 455.00 L 196.05 455.00 L 195.77 471.25 L 195.50 487.50 L 138.25 487.76 L 81.00 488.02 L 81.00 507.56 C81.00,528.96 81.35,530.59 87.00,535.34 C88.68,536.76 91.74,538.39 93.78,538.96 C96.16,539.62 120.95,539.99 162.75,539.99 ZM 856.08 517.51 L 828.67 573.00 L 811.39 573.00 C801.89,573.00 793.93,572.66 793.69,572.25 C793.04,571.11 883.37,389.03 884.43,389.34 C885.68,389.72 975.94,571.73 975.23,572.44 C974.92,572.75 967.11,573.00 957.87,573.00 C945.66,573.00 940.80,572.66 940.04,571.75 C939.48,571.06 926.86,546.09 912.02,516.25 C897.17,486.41 884.68,462.00 884.26,462.01 C883.84,462.02 871.16,486.99 856.08,517.51 ZM 508.76 460.50 L 453.11 573.00 L 435.55 573.00 C422.15,573.00 418.01,572.70 418.05,571.75 C418.12,569.86 507.58,389.64 508.62,389.29 C509.45,389.02 598.45,567.60 599.18,571.00 C599.45,572.29 597.03,572.50 582.00,572.50 L 564.50 572.50 L 536.63 516.50 ZM 401.77 556.25 L 401.50 572.50 L 352.50 572.69 C311.92,572.85 302.55,572.62 298.00,571.40 C276.83,565.69 261.06,549.78 255.55,528.54 C254.23,523.45 254.00,512.78 254.00,455.29 L 254.00 388.00 L 286.00 388.00 L 286.00 454.01 C286.00,519.18 286.03,520.08 288.12,524.53 C289.29,527.01 292.24,530.80 294.68,532.95 C296.22,534.31 297.47,535.41 298.86,536.29 C304.64,540.00 312.79,540.00 355.12,540.00 L 402.05 540.00 ZM 648.00 420.92 L 648.00 455.00 L 689.43 455.00 C716.28,455.00 731.86,454.63 733.68,453.94 C737.52,452.49 741.96,448.17 743.62,444.28 C746.61,437.30 744.03,428.31 737.68,423.59 C734.93,421.56 733.71,421.49 691.43,421.21 ZM 65.98 627.25 C63.70,628.40 60.1" fill="rgb(27,76,138)"/>
</svg>