<svg xmlns="http://www.w3.org/2000/svg" width="1024" height="1024">
<path d="M 406.88 435.76 C404.69,440.57 402.27,445.85 401.51,447.50 C399.04,452.86 399.92,448.52 403.57,437.39 C407.79,424.50 417.21,404.45 423.42,395.14 C437.17,374.54 452.83,362.15 473.04,355.87 C479.31,353.92 482.65,353.55 494.00,353.57 C513.37,353.60 526.59,357.25 550.11,369.05 C588.00,388.07 621.03,395.31 636.50,387.99 C639.25,386.68 642.05,385.59 642.72,385.55 C643.70,385.49 649.00,379.39 649.00,378.31 C649.00,378.15 646.80,379.37 644.12,381.02 C632.90,387.93 620.35,390.22 608.07,387.61 C603.98,386.74 600.29,385.69 599.87,385.27 C599.45,384.84 604.14,384.46 610.30,384.40 C623.69,384.28 636.13,381.58 646.49,376.54 C650.33,374.68 653.57,373.24 653.68,373.35 C653.79,373.46 650.99,378.45 647.46,384.44 C640.97,395.47 635.46,407.47 634.35,412.98 C633.65,416.51 632.05,417.01 631.89,413.75 C631.64,408.64 632.30,406.14 635.77,399.00 C637.77,394.88 639.62,391.06 639.87,390.52 C640.12,389.98 637.43,392.16 633.91,395.35 C614.52,412.93 591.10,417.18 562.50,408.31 C558.10,406.94 547.53,402.52 539.00,398.47 C514.53,386.86 499.14,383.28 478.13,384.30 C457.13,385.33 443.30,391.05 429.03,404.63 C419.07,414.11 412.60,423.21 406.88,435.76 ZM 482.65 524.50 C475.29,525.91 465.65,526.25 460.00,525.31 C454.59,524.41 445.04,520.78 440.39,517.87 C424.87,508.14 420.17,495.75 424.87,476.94 C428.87,460.93 436.36,448.72 454.43,428.78 C468.19,413.58 494.80,390.99 500.86,389.36 C503.11,388.76 516.30,391.55 522.40,393.93 L 525.30 395.06 L 515.12 401.97 C474.23,429.71 443.60,463.36 438.97,485.63 C436.08,499.59 439.70,509.01 450.01,514.34 C455.17,517.01 456.04,517.15 464.50,516.64 C475.87,515.96 485.77,513.18 498.63,507.06 C529.98,492.13 556.80,465.42 562.94,443.00 C565.16,434.91 566.76,433.00 571.31,433.00 C574.80,433.00 581.50,439.16 582.55,443.33 C583.92,448.82 578.06,461.11 568.73,472.30 C562.85,479.36 544.34,494.92 532.15,503.07 C515.02,514.51 499.29,521.32 482.65,524.50 ZM 486.23 350.51 C483.63,350.85 480.28,351.36 478.79,351.64 C476.52,352.06 475.97,351.72 475.44,349.63 C473.86,343.30 479.45,329.74 488.46,318.07 C494.20,310.64 510.47,295.02 521.06,286.78 C539.10,272.76 565.85,257.77 579.00,254.33 C582.58,253.39 589.10,252.60 593.50,252.57 C600.47,252.51 602.10,252.86 606.14,255.23 C611.40,258.32 615.14,262.39 618.17,268.32 C619.89,271.70 620.16,273.65 619.76,279.94 C619.09,290.65 615.95,297.30 602.02,317.52 C598.99,321.93 596.00,326.43 595.39,327.52 C593.84,330.29 591.81,330.43 588.68,327.97 C583.99,324.27 585.36,319.22 595.96,301.07 C601.91,290.88 606.09,280.50 606.73,274.35 L 607.28 269.00 L 601.57 269.00 C590.23,269.00 572.79,276.77 549.00,292.42 C523.27,309.34 501.80,329.24 494.71,342.74 C490.99,349.80 490.90,349.89 486.23,350.51" fill="rgb(250,250,250)"/>
</svg>